<svg xmlns="http://www.w3.org/2000/svg" version="1.1" xmlns:xlink="http://www.w3.org/1999/xlink" xmlns:svgjs="http://svgjs.dev/svgjs" width="1500" height="909" viewBox="0 0 1500 909"><g transform="matrix(1,0,0,1,-0.9090909090909918,-1.5705841890334113)"><svg viewBox="0 0 396 240" data-background-color="#ffffff" preserveAspectRatio="xMidYMid meet" height="909" width="1500" xmlns="http://www.w3.org/2000/svg" xmlns:xlink="http://www.w3.org/1999/xlink"><g id="tight-bounds" transform="matrix(1,0,0,1,0.2400000000000091,0.414675693474166)"><svg viewBox="0 0 395.52 239.1702352895451" height="239.1702352895451" width="395.52"><g><svg viewBox="0 0 395.52 239.1702352895451" height="239.1702352895451" width="395.52"><g transform="matrix(1,0,0,1,0,157.40216550979707)"><svg viewBox="0 0 395.52 81.76806977974803" height="81.76806977974803" width="395.52"><g id="textblocktransform"><svg viewBox="0 0 395.52 81.76806977974803" height="81.76806977974803" width="395.52" id="textblock"><g><svg viewBox="0 0 395.52 81.76806977974803" height="81.76806977974803" width="395.52"><g transform="matrix(1,0,0,1,0,0)"><svg width="395.52" viewBox="-4.092009999999999 -36.59987 267.9393313048403 55.39259" height="81.76806977974803" data-palette-color="#5f6f92"><path d="M12.321 10.22l-4.697 0.891-11.716-33.218 4.156-0.789 8.474 25.732-0.172-27.307 4.205-0.797 9.85 25.47-1.538-27.047 4.155-0.789 1.263 35.202-4.696 0.891-9.634-25.41zM46.21 5.041v0c-2.295 0.337-4.399 0.099-6.31-0.712-1.911-0.811-3.516-2.102-4.813-3.872-1.304-1.77-2.143-3.934-2.519-6.494v0c-0.375-2.559-0.202-4.872 0.519-6.938 0.721-2.066 1.888-3.76 3.5-5.082 1.618-1.329 3.607-2.166 5.968-2.512v0c2.361-0.346 4.458-0.108 6.291 0.715 1.831 0.816 3.316 2.03 4.455 3.642 1.139 1.612 1.855 3.417 2.149 5.415v0c0.053 0.363 0.099 0.723 0.138 1.082 0.033 0.366 0.084 0.779 0.152 1.241v0l-18.948 2.778c0.363 1.786 1.002 3.225 1.917 4.318 0.915 1.092 1.983 1.849 3.203 2.269 1.215 0.428 2.462 0.549 3.742 0.361v0c1.807-0.265 3.163-0.851 4.068-1.759 0.906-0.901 1.523-2.063 1.854-3.486v0l4.086-0.599c-0.229 2.345-1.113 4.425-2.652 6.241-1.545 1.823-3.812 2.954-6.8 3.392zM42.998-16.864v0c-1.9 0.279-3.481 1.097-4.744 2.454-1.256 1.357-1.898 3.095-1.924 5.214v0l14.871-2.18c-0.431-2.019-1.398-3.511-2.9-4.477-1.497-0.973-3.265-1.31-5.303-1.011zM75.849 1.574v0c-1.884 0.188-3.515-0.042-4.892-0.689-1.384-0.646-2.455-1.615-3.214-2.905v0l-0.299 0.029-0.073 3.806-3.413 0.34-3.549-35.644 4.16-0.414 1.454 14.608c0.515-1.15 1.402-2.206 2.659-3.169 1.252-0.955 2.786-1.524 4.604-1.705v0c2.11-0.21 4.023 0.099 5.74 0.926 1.717 0.827 3.132 2.154 4.245 3.979 1.112 1.819 1.805 4.098 2.078 6.838v0c0.276 2.773 0.049 5.171-0.681 7.193-0.73 2.022-1.862 3.609-3.395 4.76-1.539 1.158-3.347 1.841-5.424 2.047zM74.907-2.332v0c2.083-0.207 3.718-1.114 4.905-2.719 1.194-1.6 1.641-3.902 1.342-6.907v0c-0.299-2.999-1.191-5.167-2.677-6.507-1.479-1.333-3.261-1.896-5.344-1.689v0c-2.076 0.207-3.718 1.111-4.926 2.712-1.207 1.607-1.661 3.91-1.362 6.909v0c0.299 3.005 1.198 5.173 2.698 6.504 1.5 1.338 3.288 1.904 5.364 1.697zM143.417-1.781l-20 0.155-0.028-3.63 7.91-0.061-0.213-27.56-7.91 0.062-0.028-3.63 20-0.155 0.028 3.63-7.91 0.061 0.213 27.559 7.91-0.061zM172.024-0.643l-6.765-0.266c-2.252-0.089-4.002-0.705-5.251-1.848-1.249-1.143-1.818-3.141-1.706-5.992v0l0.532-13.519-6.265-0.247 0.141-3.577 3.727 0.147c1.692 0.067 2.704-0.724 3.035-2.373v0l0.841-3.8 3.087 0.122-0.248 6.315 9.842 0.387-0.141 3.578-9.842-0.388-0.532 13.52c-0.055 1.392 0.23 2.381 0.854 2.966 0.624 0.592 1.729 0.919 3.314 0.981v0l5.525 0.217zM220.753 5.097v0c-2.299-0.315-4.277-1.073-5.936-2.276-1.66-1.196-2.874-2.843-3.644-4.94-0.763-2.096-0.942-4.624-0.536-7.582v0l3.001-21.926 4.131 0.566-3.021 22.074c-0.405 2.959 0.005 5.343 1.231 7.153 1.226 1.81 3.021 2.876 5.386 3.2v0c2.371 0.325 4.371-0.223 5.998-1.642 1.634-1.418 2.654-3.607 3.059-6.566v0l3.021-22.074 4.142 0.567-3.002 21.925c-0.405 2.959-1.266 5.344-2.584 7.156-1.318 1.811-2.947 3.069-4.886 3.772-1.934 0.711-4.054 0.909-6.36 0.593zM241.047 18.793l-4.111-0.756 6.436-35.023 3.324 0.611-0.244 4.093 0.295 0.054c0.856-1.192 2.05-2.101 3.582-2.727 1.532-0.627 3.229-0.769 5.091-0.427v0c1.954 0.359 3.635 1.173 5.042 2.441 1.401 1.267 2.381 2.939 2.942 5.014 0.561 2.076 0.589 4.484 0.086 7.225v0c-0.498 2.708-1.383 4.925-2.656 6.649-1.278 1.717-2.813 2.916-4.606 3.597-1.8 0.686-3.743 0.837-5.828 0.454v0c-1.862-0.342-3.362-1.031-4.5-2.067-1.145-1.037-1.894-2.144-2.247-3.321v0zM250.628 5.994v0c2.059 0.378 3.891-0.037 5.496-1.248 1.604-1.203 2.679-3.29 3.224-6.26v0c0.545-2.964 0.282-5.296-0.788-6.998-1.071-1.695-2.636-2.731-4.695-3.109v0c-2.052-0.377-3.88 0.036-5.484 1.239-1.605 1.21-2.68 3.297-3.225 6.26v0c-0.546 2.97-0.283 5.303 0.788 6.998 1.07 1.701 2.631 2.741 4.684 3.118z" opacity="1" transform="matrix(1,0,0,1,0,0)" fill="#5f6f92" class="wordmark-text-0" data-fill-palette-color="primary" id="text-0"></path></svg></g></svg></g></svg></g></svg></g><g transform="matrix(1,0,0,1,128.30195998524545,0)"><svg viewBox="0 0 138.91608002950912 132.3007369036323" height="132.3007369036323" width="138.91608002950912"><g><svg xmlns:x="http://ns.adobe.com/Extensibility/1.0/" xmlns:i="http://ns.adobe.com/AdobeIllustrator/10.0/" xmlns:graph="http://ns.adobe.com/Graphs/1.0/" xmlns="http://www.w3.org/2000/svg" xmlns:xlink="http://www.w3.org/1999/xlink" version="1.1" x="0" y="0" viewBox="0.4897819238035984 2.9 98.9102180761964 94.19999999999999" enable-background="new 0 0 100 100" xml:space="preserve" height="132.3007369036323" width="138.91608002950912" class="icon-icon-0" data-fill-palette-color="accent" id="icon-0"><path d="M50 2.9C45.9 2.9 42 3.7 38.2 5.3 22.5 11.7 15 29.8 21.5 45.5 26.3 57.1 37.5 64.6 50 64.6 54.1 64.6 58 63.8 61.8 62.2 77.5 55.7 85 37.7 78.5 21.9 73.7 10.4 62.5 2.9 50 2.9M25.5 42.1C23.6 36.7 23.6 30.9 25.5 25.4H32.1C31.6 28.1 31.3 31 31.3 33.7 31.3 36.3 31.6 39.1 32.3 42H25.5zM36.3 33.7C36.3 30.8 36.6 28 37.2 25.4H47.5V42.1H37.4C36.7 39.3 36.3 36.4 36.3 33.7M52.5 9.2C56 10.6 59.2 14.9 61.3 20.4H52.5zM47.5 9.2V20.4H38.7C40.8 14.9 44 10.6 47.5 9.2M47.5 47.1V58.2C44.2 56.7 41.1 52.3 39 47.1zM52.5 58.2V47.1H61C58.9 52.3 55.8 56.7 52.5 58.2M52.5 42.1V25.4H62.8C63.4 28.1 63.7 30.9 63.7 33.7 63.7 36.4 63.3 39.2 62.6 42H52.5zM67.9 25.4H74.5C76.4 31 76.3 36.8 74.5 42.1H67.7C68.4 39.2 68.7 36.3 68.7 33.8 68.7 31 68.4 28.1 67.9 25.4M72.2 20.4H66.6C65.5 16.8 63.9 13.5 61.9 10.8 66.1 13 69.7 16.3 72.2 20.4M38.1 10.8C36.2 13.5 34.6 16.8 33.4 20.4H27.9C30.3 16.3 33.8 13 38.1 10.8M27.8 47.1H33.7C35 50.8 36.7 54.3 38.9 57.2 34.4 55 30.5 51.5 27.8 47.1M61.1 57.1C63.2 54.2 65 50.7 66.2 47.1H72.1C69.6 51.3 65.8 54.9 61.1 57.1M9.7 97.1C12.4 97.1 15 95.9 16.8 93.8 17.6 92.8 18.2 91.7 18.6 90.4H41.2C42.3 94.3 45.8 97.1 50 97.1S57.7 94.3 58.8 90.4H81.4C82.5 94.3 86 97.1 90.2 97.1 95.3 97.1 99.4 93 99.4 87.9S95.3 78.7 90.2 78.7C86 78.7 82.5 81.5 81.4 85.4H58.8C57.9 82.3 55.5 79.9 52.5 79.1V72.2C52.5 70.8 51.4 69.7 50 69.7S47.5 70.8 47.5 72.2V79.1C44.4 80 42 82.4 41.2 85.4H18.5C17.6 82.1 14.8 79.5 11.5 78.9S4.8 79.5 2.6 82.1C0.8 84.2 0.1 87 0.7 89.7 1.4 93.3 4.3 96.3 7.9 96.9 8.5 97.1 9.1 97.1 9.7 97.1M90.3 83.7C92.6 83.7 94.5 85.6 94.5 87.9S92.6 92.1 90.3 92.1C88.1 92.1 86.3 90.4 86.1 88.2V87.6C86.3 85.5 88.1 83.7 90.3 83.7M50 83.7C52.3 83.7 54.2 85.6 54.2 87.9S52.3 92.1 50 92.1 45.8 90.2 45.8 87.9 47.7 83.7 50 83.7M5.6 88.8C5.4 87.5 5.7 86.3 6.5 85.3S8.5 83.8 9.7 83.8C10 83.8 10.3 83.8 10.5 83.9 12.1 84.2 13.5 85.5 13.8 87.2 14 88.5 13.7 89.7 12.9 90.7 11.9 91.9 10.4 92.4 8.8 92.1 7.2 91.7 5.9 90.4 5.6 88.8" fill="#1a1a4a" data-fill-palette-color="accent"></path></svg><g></g></g></svg></g><g></g></svg></g><defs></defs></svg><rect width="395.52" height="239.1702352895451" fill="none" stroke="none" visibility="hidden"></rect></g></svg></g></svg>